<svg xmlns="http://www.w3.org/2000/svg" viewBox="0 0 64 64">
  <!-- Upper wings (blush pink) — expanded to fill the square -->
  <path d="M32,35 C24,18 4,6 2,16 C0,24 8,32 20,35 C25,36 29,36 32,35" fill="#F4AABB" stroke="#D47A8A" stroke-width="1"/>
  <path d="M32,35 C40,18 60,6 62,16 C64,24 56,32 44,35 C39,36 35,36 32,35" fill="#F4AABB" stroke="#D47A8A" stroke-width="1"/>
  <!-- Lower wings (soft lavender) -->
  <path d="M32,35 C18,42 4,52 6,58 C8,63 20,61 28,53 C31,48 32,42 32,35" fill="#C8B4E8" stroke="#9A7AC0" stroke-width="1"/>
  <path d="M32,35 C46,42 60,52 58,58 C56,63 44,61 36,53 C33,48 32,42 32,35" fill="#C8B4E8" stroke="#9A7AC0" stroke-width="1"/>
  <!-- Wing vein lines -->
  <path d="M32,35 C24,28 14,20 8,22" stroke="#D47A8A" stroke-width="0.8" fill="none" stroke-linecap="round" opacity="0.7"/>
  <path d="M32,35 C40,28 50,20 56,22" stroke="#D47A8A" stroke-width="0.8" fill="none" stroke-linecap="round" opacity="0.7"/>
  <!-- Body -->
  <ellipse cx="32" cy="35" rx="2.5" ry="12" fill="#4A3040"/>
  <!-- Antennae -->
  <path d="M31,23 C27,15 21,8 18,4" stroke="#4A3040" stroke-width="1.2" fill="none" stroke-linecap="round"/>
  <path d="M33,23 C37,15 43,8 46,4" stroke="#4A3040" stroke-width="1.2" fill="none" stroke-linecap="round"/>
  <!-- Heart tips (left) -->
  <path d="M0,-2.5 C0.8,-4 3.5,-3.2 3.5,-1.2 C3.5,0.8 1.5,2.5 0,4 C-1.5,2.5 -3.5,0.8 -3.5,-1.2 C-3.5,-3.2 -0.8,-4 0,-2.5 Z" transform="translate(18,4)" fill="#4A3040"/>
  <!-- Heart tips (right) -->
  <path d="M0,-2.5 C0.8,-4 3.5,-3.2 3.5,-1.2 C3.5,0.8 1.5,2.5 0,4 C-1.5,2.5 -3.5,0.8 -3.5,-1.2 C-3.5,-3.2 -0.8,-4 0,-2.5 Z" transform="translate(46,4)" fill="#4A3040"/>
</svg>
