<svg xmlns="http://www.w3.org/2000/svg" viewBox="0 0 680 240">
  <path d="M340,72 C318,48 292,32 268,43 C248,53 248,70 261,77 C274,84 306,79 340,72" fill="rgba(244,204,204,0.25)" stroke="rgba(255,255,255,0.4)" stroke-width="0.6"/>
  <path d="M340,72 C362,48 388,32 412,43 C432,53 432,70 419,77 C406,84 374,79 340,72" fill="rgba(244,204,204,0.25)" stroke="rgba(255,255,255,0.4)" stroke-width="0.6"/>
  <path d="M338,70 C322,58 304,50 286,54" stroke="rgba(255,255,255,0.35)" stroke-width="0.4" fill="none" stroke-linecap="round"/>
  <path d="M342,70 C358,58 376,50 394,54" stroke="rgba(255,255,255,0.35)" stroke-width="0.4" fill="none" stroke-linecap="round"/>
  <path d="M340,72 C324,80 304,90 288,97 C272,104 270,93 278,84 C289,74 316,71 340,72" fill="rgba(226,213,240,0.25)" stroke="rgba(255,255,255,0.4)" stroke-width="0.6"/>
  <path d="M340,72 C356,80 376,90 392,97 C408,104 410,93 402,84 C391,74 364,71 340,72" fill="rgba(226,213,240,0.25)" stroke="rgba(255,255,255,0.4)" stroke-width="0.6"/>
  <ellipse cx="340" cy="72" rx="2.5" ry="8" fill="#FAF6EE"/>
  <path d="M338,64 C334,56 330,50 327,44" stroke="#FAF6EE" stroke-width="0.8" fill="none" stroke-linecap="round"/>
  <path d="M342,64 C346,56 350,50 353,44" stroke="#FAF6EE" stroke-width="0.8" fill="none" stroke-linecap="round"/>
  <path d="M327,44 C326,43 322,42 322,39 C322,36 327,35 327,37 C327,35 332,36 332,39 C332,42 328,43 327,44 Z" fill="#FAF6EE"/>
  <path d="M353,44 C352,43 348,42 348,39 C348,36 353,35 353,37 C353,35 358,36 358,39 C358,42 354,43 353,44 Z" fill="#FAF6EE"/>
  <text x="340" y="163" text-anchor="middle" font-family="Georgia, 'Times New Roman', serif" font-style="italic" font-size="52" fill="#FAF6EE" letter-spacing="-0.5">Lauren</text>
  <text x="342" y="191" text-anchor="middle" font-family="Georgia, 'Times New Roman', serif" font-size="17" fill="rgba(250,246,238,0.65)" letter-spacing="7">ABELA</text>
  <line x1="302" y1="203" x2="378" y2="203" stroke="rgba(244,204,204,0.5)" stroke-width="1.2"/>
  <circle cx="298" cy="203" r="2.5" fill="rgba(244,204,204,0.5)"/>
  <circle cx="382" cy="203" r="2.5" fill="rgba(244,204,204,0.5)"/>
</svg>
