<svg xmlns="http://www.w3.org/2000/svg" viewBox="236 24 208 88">
  <path d="M340,72 C318,48 292,32 268,43 C248,53 248,70 261,77 C274,84 306,79 340,72" fill="#F4CCCC" stroke="#C8A0A0" stroke-width="0.6"/>
  <path d="M340,72 C362,48 388,32 412,43 C432,53 432,70 419,77 C406,84 374,79 340,72" fill="#F4CCCC" stroke="#C8A0A0" stroke-width="0.6"/>
  <path d="M338,70 C322,58 304,50 286,54" stroke="#C8A0A0" stroke-width="0.4" fill="none" stroke-linecap="round"/>
  <path d="M342,70 C358,58 376,50 394,54" stroke="#C8A0A0" stroke-width="0.4" fill="none" stroke-linecap="round"/>
  <path d="M340,72 C324,80 304,90 288,97 C272,104 270,93 278,84 C289,74 316,71 340,72" fill="#E2D5F0" stroke="#B8AACC" stroke-width="0.6"/>
  <path d="M340,72 C356,80 376,90 392,97 C408,104 410,93 402,84 C391,74 364,71 340,72" fill="#E2D5F0" stroke="#B8AACC" stroke-width="0.6"/>
  <ellipse cx="340" cy="72" rx="2.5" ry="8" fill="#2C2C2A"/>
  <path d="M338,64 C334,56 330,50 327,44" stroke="#2C2C2A" stroke-width="0.8" fill="none" stroke-linecap="round"/>
  <path d="M342,64 C346,56 350,50 353,44" stroke="#2C2C2A" stroke-width="0.8" fill="none" stroke-linecap="round"/>
  <path d="M0,0 C-0.8,-1.2 -2.8,-1.6 -2.8,-3.2 C-2.8,-4.7 0,-4.7 0,-3.2 C0,-4.7 2.8,-4.7 2.8,-3.2 C2.8,-1.6 0.8,-1.2 0,0 Z" fill="#2C2C2A" transform="translate(327,44) rotate(-22)"/>
  <path d="M0,0 C-0.8,-1.2 -2.8,-1.6 -2.8,-3.2 C-2.8,-4.7 0,-4.7 0,-3.2 C0,-4.7 2.8,-4.7 2.8,-3.2 C2.8,-1.6 0.8,-1.2 0,0 Z" fill="#2C2C2A" transform="translate(353,44) rotate(22)"/>
</svg>
